<svg xmlns="http://www.w3.org/2000/svg" viewBox="0 0 17.04 10.65"><g data-name="Layer 2"><path d="M16 2.13H5.32a1.07 1.07 0 0 1 0-2.13H16a1.07 1.07 0 0 1 0 2.13zm-14.91 0a1.07 1.07 0 1 1 1.04-1.06 1.06 1.06 0 0 1-1.06 1.06zM16 6.39H5.32a1.07 1.07 0 0 1 0-2.13H16a1.07 1.07 0 1 1 0 2.13zm-14.91 0a1.07 1.07 0 1 1 1.04-1.06 1.06 1.06 0 0 1-1.06 1.06zM16 10.65H5.32a1.06 1.06 0 0 1 0-2.13H16a1.06 1.06 0 1 1 0 2.13zm-14.91 0a1.06 1.06 0 1 1 1.04-1.06 1.06 1.06 0 0 1-1.06 1.07z" data-name="Layer 1"/></g></svg>