<svg xmlns="http://www.w3.org/2000/svg" viewBox="0 0 17.61 15.58"><defs><style>.cls-1{fill:#181a19}</style></defs><g id="Layer_2" data-name="Layer 2"><g id="Layer_1-2" data-name="Layer 1"><path class="cls-1" d="M8.8 11.72a4.93 4.93 0 0 1 1.14-3.16v-.15a4.48 4.48 0 0 0 1.21-1.8c.62-.39.85-.44 1-.89 0 0 .28-1.69-.38-1.69 0 0-.76 0-.67-.35a2.46 2.46 0 0 0 0-1c0-.44.22-1.7-.7-1.87-.63-.12-.43.06-.74 0S9 0 8.39 0l-.92.19c-.57 0-.07.18-.38.22s.41 0-.52.13-1.11 1.37-1.16 1.81a6.52 6.52 0 0 0 0 1.24C5.48 4 5 4 5 4c-.55 0-.65 1.69-.65 1.69.08.43 0 .64.79 1a3.39 3.39 0 0 0 1.42 1.63s.05.71.06 1.22c-.08 0-.14 1.3-2.7 1.68s-3 1.2-3.52 1.67-.4 2.65-.4 2.65h10.54a5 5 0 0 1-1.74-3.82z"/><path class="cls-1" d="M13.75 7.87a3.86 3.86 0 1 0 3.85 3.86 3.86 3.86 0 0 0-3.85-3.86zm-.55 6.5l-2.47-2.44.9-.91 1.55 1.58 2.68-2.68.9.9z"/></g></g></svg>